<svg width="40px" height="40px" viewBox="0 0 40 40" xmlns="http://www.w3.org/2000/svg" version="1.1">
<circle fill="white" cx="20" cy="20" r="20"/>
<path id="f" fill="#009A49" d="m 6.5,17.7 c 0,0.1 -0.1,0.1 -0.1,0.1 H 4.2 v 1.1 h 1.1 c 0.1,0 0.1,0.1 0.1,0.1 v 0.8 c 0,0.1 -0.1,0.1 -0.1,0.1 H 4.2 v 1.9 c 0,0.1 -0.1,0.1 -0.1,0.1 H 3.4 c -0.2,0 -0.3,-0.1 -0.3,-0.3 v -4.7 c 0,-0.1 0.1,-0.1 0.1,-0.1 h 3.1 v 0 c 0.1,0 0.1,0.1 0.1,0.1 v 0.8 z"/>
<path id="r" fill="#009A49" d="m 12.4,21.9 -1.1,-1.7 c 0.6,-0.3 0.9,-1.0 0.9,-1.6 0,-0.8 -0.7,-1.8 -1.8,-1.8 H 8.4 c -0.1,0 -0.1,0.1 -0.1,0.1 v 4.9 c 0,0.1 0.1,0.1 0.1,0.1 h 0.9 c 0.1,0 0.1,-0.1 0.1,-0.1 v -1.5 h 0.9 l 0.8,1.3 c 0.1,0.1 0.2,0.3 0.4,0.3 h 0.8 c 0.1,0 0.1,-0.1 0.1,-0.2 z m -2.0,-2.5 H 9.4 V 17.8 h 1.0 c 0.6,0 0.8,0.4 0.8,0.7 0,0.4 -0.2,0.8 -0.8,0.8 z"/>
<path id="e" fill="#009A49" d="m 17.8,17.7 c 0,0.1 -0.1,0.1 -0.1,0.1 h -2.2 v 1.1 h 1.2 c 0.1,0 0.1,0.1 0.1,0.1 v 0.8 c 0,0.1 -0.1,0.1 -0.1,0.1 h -1.2 v 1.0 h 2.2 c 0.1,0 0.1,0.1 0.1,0.1 v 0.8 c 0,0.1 -0.1,0.1 -0.1,0.1 H 14.4 c -0.1,0 -0.1,-0.1 -0.1,-0.1 v -4.9 c 0,-0.1 0.1,-0.1 0.1,-0.1 h 3.2 c 0.1,0 0.1,0.1 0.1,0.1 v 0.8 z"/>
<path id="s" fill="#009A49" d="m 21.4,22.1 c -1.0,0 -1.5,-0.6 -1.7,-0.7 -0.1,-0.1 -0.1,-0.1 -0.0,-0.2 l 0.4,-0.6 c 0.1,-0.1 0.2,-0.1 0.3,-0.0 0.2,0.2 0.6,0.5 1.0,0.5 0.4,0 0.7,-0.1 0.7,-0.5 0,-0.3 -0.3,-0.4 -0.6,-0.5 -1.0,-0.5 -1.7,-0.8 -1.7,-1.7 0,-0.7 0.6,-1.5 1.7,-1.5 0.8,0 1.4,0.4 1.5,0.6 0.1,0.1 0.1,0.2 0.0,0.2 l -0.4,0.6 c -0.1,0.1 -0.2,0.1 -0.3,0.1 -0.2,-0.1 -0.5,-0.4 -0.9,-0.4 -0.3,0 -0.6,0.2 -0.6,0.4 0,0.2 0.2,0.4 0.6,0.5 0.9,0.4 1.8,0.8 1.8,1.8 0,0.8 -0.8,1.5 -1.8,1.5"/>
<path id="h" fill="#009A49" d="m 29.5,21.9 c 0,0.1 -0.1,0.1 -0.1,0.1 h -0.7 c -0.2,0 -0.3,-0.1 -0.3,-0.4 v -1.6 h -2.2 v 1.9 c 0,0.1 -0.1,0.1 -0.1,0.1 h -0.8 c -0.1,0 -0.1,-0.1 -0.1,-0.1 v -4.9 c 0,-0.1 0.1,-0.1 0.1,-0.1 h 0.8 c 0.1,0 0.1,0.1 0.1,0.1 v 2.0 h 2.2 v -2.0 c 0,-0.1 0.1,-0.1 0.1,-0.1 h 0.9 c 0.1,0 0.1,0.1 0.1,0.1 v 4.9 z"/>
<path id="o" fill="#009A49" d="m 34.2,16.8 c -1.5,0 -2.7,1.2 -2.7,2.6 0,1.5 1.2,2.7 2.7,2.7 1.5,0 2.7,-1.2 2.7,-2.7 0,-1.5 -1.2,-2.6 -2.7,-2.6 z m 0,4.2 c -0.8,0 -1.5,-0.7 -1.5,-1.6 0,-0.8 0.7,-1.6 1.5,-1.6 0.8,0 1.5,0.7 1.5,1.6 0,0.8 -0.7,1.6 -1.5,1.6 z"/>
<path id="underline" fill="#009A49" d="m 36.0,25.2 c 0,0.1 -0.1,0.2 -0.2,0.2 h -3.1 c -0.1,0 -0.2,-0.1 -0.2,-0.2 v -0.7 c 0,-0.1 0.1,-0.2 0.2,-0.2 h 3.1 c 0.1,0 0.2,0.1 0.2,0.2 z" />
</svg>
